<svg xmlns="http://www.w3.org/2000/svg" viewBox="0 0 48 48" id="coin">
  <path fill="#f2d26c" d="M28.994 35.999h10c1.1 0 2 .9 2 2v2c0 1.1-.9 2-2 2h-12c-1.1 0-2-.9-2-2"></path>
  <path fill="#f2d26c" d="M30 30.001h10c1.1 0 2 .9 2 2v2c0 1.1-.9 2-2 2H29m-4-16c0-1.1.9-2 2-2h12c1.1 0 2 .9 2 2v2c0 1.1-.9 2-2 2H29"></path>
  <path fill="#f2d26c" d="M28.994 23.999h10c1.1 0 2 .9 2 2v2c0 1.1-.9 2-2 2h-9"></path>
  <path fill="#d3a93e" d="M26.96 17.996a14.99 14.99 0 0 0-1.777-1.162c.314.675.99 1.148 1.777 1.162zm.011.008a2.002 2.002 0 0 0-1.785 1.169C28.687 21.505 31 25.485 31 29.997v.002h2v-.002c0-4.905-2.377-9.255-6.029-11.993zm-1.792 22.821a2.002 2.002 0 0 0 1.785 1.171c3.655-2.737 6.035-7.088 6.036-11.995h-2c-.001 4.514-2.318 8.494-5.821 10.824z"></path>
  <path fill="#f2d26c" d="M38.994 17.999h-12c-1.1 0-2-.9-2-2v-2c0-1.1.9-2 2-2h12c1.1 0 2 .9 2 2v2c0 1.1-.9 2-2 2z"></path>
  <path fill="#f2d26c" d="M39 12.001H27c-1.1 0-2-.9-2-2v-2c0-1.1.9-2 2-2h12c1.1 0 2 .9 2 2v2c0 1.1-.9 2-2 2z"></path>
  <circle cx="18" cy="29.997" r="12" fill="#f2d26c"></circle>
  <circle cx="18" cy="29.997" r="8" fill="#f8e391"></circle>
  <path fill="#444a54" d="M17.898 25.012c.036.004.067.021.104.021.036 0 .067-.017.102-.021A1.997 1.997 0 0 1 20 27.002a1 1 0 0 0 2 0c0-1.858-1.279-3.41-2.999-3.858L19 22.001a1 1 0 0 0-2 0l.001 1.141C15.28 23.589 14 25.142 14 27c0 2.206 1.794 4 4 4 1.103 0 2 .897 2 2s-.897 2-2 2-2-.897-2-2a1 1 0 0 0-2 0c0 1.858 1.28 3.411 3 3.858l.001 1.174a1 1 0 0 0 2 0L19 36.859c1.72-.447 3-2 3-3.858 0-2.206-1.794-4-4-4-1.103 0-2-.897-2-2a1.998 1.998 0 0 1 1.898-1.989z"></path>
  <path fill="#444a54" d="M41.593 29.469a2.96 2.96 0 0 0 .401-1.47v-2c0-.769-.299-1.464-.776-1.995A2.978 2.978 0 0 0 42 22.001v-2a2.98 2.98 0 0 0-.784-2.005 2.978 2.978 0 0 0 .778-1.997v-2c0-.769-.299-1.464-.776-1.995A2.978 2.978 0 0 0 42 10.001v-2c0-1.654-1.346-3-3-3H27c-1.654 0-3 1.346-3 3v2c0 .769.299 1.464.776 1.995a2.977 2.977 0 0 0-.783 2.003v2c0 .773.302 1.472.784 2.005a2.997 2.997 0 0 0-.444.651A12.902 12.902 0 0 0 18 16.997c-7.168 0-13 5.832-13 13s5.832 13 13 13c2.297 0 4.452-.604 6.327-1.653a2.993 2.993 0 0 0 2.667 1.655h12c1.654 0 3-1.346 3-3v-2c0-.535-.152-1.031-.399-1.467A2.993 2.993 0 0 0 43 34.001v-2a2.992 2.992 0 0 0-1.407-2.532zM41 34.001c0 .551-.449 1-1 1h-.987l-.019-.002h-8.997c.522-1.246.845-2.592.953-3.998H40c.551 0 1 .449 1 1v2zm-1.006-8.002v2c0 .551-.449 1-1 1H30.95a12.91 12.91 0 0 0-.951-3.998h9.003a1 1 0 0 1 .992.998zm-14-12A1 1 0 0 1 26.99 13l.011.001h12.002a1 1 0 0 1 .991.998v2c0 .551-.449 1-1 1h-12c-.551 0-1-.449-1-1v-2zM26 8.001c0-.551.449-1 1-1h12c.551 0 1 .449 1 1v2a1 1 0 0 1-.996.999l-.011-.001H26.991a1 1 0 0 1-.991-.998v-2zm1 11h12c.551 0 1 .449 1 1v2a1 1 0 0 1-.996.999l-.011-.001h-10v.091a13.092 13.092 0 0 0-2.953-3.289.988.988 0 0 1 .96-.8zM7 29.997c0-6.065 4.935-11 11-11s11 4.935 11 11-4.935 11-11 11-11-4.934-11-11zm32.994 10.002c0 .551-.449 1-1 1h-12a.987.987 0 0 1-.96-.802 13.118 13.118 0 0 0 2.96-3.293v.095H29v.002h10.003a1 1 0 0 1 .99.998v2z"></path>
</svg>
